<?xml version="1.0" encoding="UTF-8"?>
<svg id="Camada_2" data-name="Camada 2" xmlns="http://www.w3.org/2000/svg" viewBox="0 0 586.96 586.96">
  <defs>
    <style>
      .cls-1 {
        fill: #aee239;
      }

      .cls-2 {
        fill: #40c0cb;
      }

      .cls-3 {
        fill: #00a8c6;
      }

      .cls-4 {
        fill: #f9f2e7;
      }

      .cls-5 {
        fill: #191919;
      }
    </style>
  </defs>
  <g id="Camada_1-2" data-name="Camada 1">
    <rect class="cls-3" y="290.11" width="293.48" height="296.85"/>
    <path class="cls-3" d="M293.48,0v54c-132.26,0-239.48,107.22-239.48,239.48H0C0,131.4,131.4,0,293.48,0Z"/>
    <path class="cls-1" d="M538.5,131.89l-45.08,29.73c-42.85-64.84-116.4-107.62-199.94-107.62V0C395.86,0,485.99,52.43,538.5,131.89Z"/>
    <path class="cls-4" d="M293.48,54v239.48H54c0-132.26,107.22-239.48,239.48-239.48Z"/>
    <path class="cls-1" d="M493.42,161.62l-199.94,131.86V54c83.54,0,157.09,42.78,199.94,107.62Z"/>
    <path class="cls-3" d="M0,293.48h54c0,132.26,107.22,239.48,239.48,239.48v54C131.4,586.96,0,455.56,0,293.48Z"/>
    <path class="cls-2" d="M54,293.48h239.48v239.48c-132.26,0-239.48-107.22-239.48-239.48Z"/>
    <path class="cls-5" d="M501.27,429.81c-41.33,61.64-118.91,103.15-207.79,103.15v-205.29l207.79,102.14Z"/>
    <circle class="cls-3" cx="219.68" cy="205.59" r="31.85"/>
    <path class="cls-5" d="M586.96,293.48h-293.48l199.94-131.86,45.08-29.73c30.63,46.35,48.46,101.89,48.46,161.59Z"/>
  </g>
</svg>